<svg id="portfolio" xmlns="http://www.w3.org/2000/svg" width="60" height="60" viewBox="0 0 60 60">
  <path id="Path_844" data-name="Path 844" d="M55.5,60H4.5A4.505,4.505,0,0,1,0,55.5V4.5A4.505,4.505,0,0,1,4.5,0h51A4.505,4.505,0,0,1,60,4.5v51A4.505,4.505,0,0,1,55.5,60ZM4.5,2A2.5,2.5,0,0,0,2,4.5v51A2.5,2.5,0,0,0,4.5,58h51A2.5,2.5,0,0,0,58,55.5V4.5A2.5,2.5,0,0,0,55.5,2Z" fill="#9a9a9a"/>
  <path id="Path_845" data-name="Path 845" d="M9,10H5A1,1,0,0,1,4,9V5A1,1,0,0,1,5,4H9a1,1,0,0,1,1,1V9A1,1,0,0,1,9,10ZM6,8H8V6H6Z" fill="#9a9a9a"/>
  <path id="Path_846" data-name="Path 846" d="M17,10H13a1,1,0,0,1-1-1V5a1,1,0,0,1,1-1h4a1,1,0,0,1,1,1V9A1,1,0,0,1,17,10ZM14,8h2V6H14Z" fill="#9a9a9a"/>
  <path id="Path_847" data-name="Path 847" d="M25,10H21a1,1,0,0,1-1-1V5a1,1,0,0,1,1-1h4a1,1,0,0,1,1,1V9A1,1,0,0,1,25,10ZM22,8h2V6H22Z" fill="#9a9a9a"/>
  <path id="Path_848" data-name="Path 848" d="M59,14H1a1,1,0,0,1-1-1V4.5A4.505,4.505,0,0,1,4.5,0h51A4.505,4.505,0,0,1,60,4.5V13A1,1,0,0,1,59,14ZM2,12H58V4.5A2.5,2.5,0,0,0,55.5,2H4.5A2.5,2.5,0,0,0,2,4.5Z" fill="#9a9a9a"/>
  <path id="Path_849" data-name="Path 849" d="M55,40H5a1,1,0,0,1-1-1V17a1,1,0,0,1,1-1H55a1,1,0,0,1,1,1V39A1,1,0,0,1,55,40ZM6,38H54V18H6Z" fill="#9a9a9a"/>
  <path id="Path_850" data-name="Path 850" d="M26,40a1,1,0,0,1-.76-.35L20,33.536,14.759,39.65a1,1,0,0,1-1.518-1.3l6-7a1.034,1.034,0,0,1,1.519,0l6,7A1,1,0,0,1,26,40Z" fill="#9a9a9a"/>
  <path id="Path_851" data-name="Path 851" d="M47,40a1,1,0,0,1-.76-.35L41,33.536,35.759,39.65a1,1,0,0,1-1.518-1.3l6-7a1.034,1.034,0,0,1,1.519,0l6,7A1,1,0,0,1,47,40Z" fill="#9a9a9a"/>
  <path id="Path_852" data-name="Path 852" d="M23,28a4,4,0,1,1,4-4A4,4,0,0,1,23,28Zm0-6a2,2,0,1,0,2,2A2,2,0,0,0,23,22Z" fill="#9a9a9a"/>
  <path id="Path_853" data-name="Path 853" d="M37.182,37.193a.994.994,0,0,1-.752-.341l-6.388-7.288-5.681,7.224a1,1,0,1,1-1.572-1.236l6.426-8.17a1,1,0,0,1,.76-.382,1.044,1.044,0,0,1,.779.341l7.182,8.193a1,1,0,0,1-.754,1.659Z" fill="#9a9a9a"/>
  <path id="Path_854" data-name="Path 854" d="M13,56H5a1,1,0,0,1,0-2h8a1,1,0,0,1,0,2Z" fill="#9a9a9a"/>
  <path id="Path_855" data-name="Path 855" d="M27,56H19a1,1,0,0,1,0-2h8a1,1,0,0,1,0,2Z" fill="#9a9a9a"/>
  <path id="Path_856" data-name="Path 856" d="M41,56H33a1,1,0,0,1,0-2h8a1,1,0,0,1,0,2Z" fill="#9a9a9a"/>
  <path id="Path_857" data-name="Path 857" d="M55,56H47a1,1,0,0,1,0-2h8a1,1,0,0,1,0,2Z" fill="#9a9a9a"/>
  <path id="Path_858" data-name="Path 858" d="M9,52a5,5,0,1,1,5-5A5.006,5.006,0,0,1,9,52Zm0-8a3,3,0,1,0,3,3A3,3,0,0,0,9,44Z" fill="#9a9a9a"/>
  <path id="Path_859" data-name="Path 859" d="M23,52a5,5,0,1,1,5-5A5.006,5.006,0,0,1,23,52Zm0-8a3,3,0,1,0,3,3A3,3,0,0,0,23,44Z" fill="#9a9a9a"/>
  <path id="Path_860" data-name="Path 860" d="M37,52a5,5,0,1,1,5-5A5.006,5.006,0,0,1,37,52Zm0-8a3,3,0,1,0,3,3A3,3,0,0,0,37,44Z" fill="#9a9a9a"/>
  <path id="Path_861" data-name="Path 861" d="M51,52a5,5,0,1,1,5-5A5.006,5.006,0,0,1,51,52Zm0-8a3,3,0,1,0,3,3A3,3,0,0,0,51,44Z" fill="#9a9a9a"/>
</svg>
