<svg id="search-engine" xmlns="http://www.w3.org/2000/svg" width="60" height="60" viewBox="0 0 60 60">
  <path id="Path_967" data-name="Path 967" d="M55.5,60H4.5A4.505,4.505,0,0,1,0,55.5V4.5A4.505,4.505,0,0,1,4.5,0h51A4.505,4.505,0,0,1,60,4.5v51A4.505,4.505,0,0,1,55.5,60ZM4.5,2A2.5,2.5,0,0,0,2,4.5v51A2.5,2.5,0,0,0,4.5,58h51A2.5,2.5,0,0,0,58,55.5V4.5A2.5,2.5,0,0,0,55.5,2Z" fill="#9a9a9a"/>
  <path id="Path_968" data-name="Path 968" d="M9,10H5A1,1,0,0,1,4,9V5A1,1,0,0,1,5,4H9a1,1,0,0,1,1,1V9A1,1,0,0,1,9,10ZM6,8H8V6H6Z" fill="#9a9a9a"/>
  <path id="Path_969" data-name="Path 969" d="M17,10H13a1,1,0,0,1-1-1V5a1,1,0,0,1,1-1h4a1,1,0,0,1,1,1V9A1,1,0,0,1,17,10ZM14,8h2V6H14Z" fill="#9a9a9a"/>
  <path id="Path_970" data-name="Path 970" d="M25,10H21a1,1,0,0,1-1-1V5a1,1,0,0,1,1-1h4a1,1,0,0,1,1,1V9A1,1,0,0,1,25,10ZM22,8h2V6H22Z" fill="#9a9a9a"/>
  <path id="Path_971" data-name="Path 971" d="M59,14H1a1,1,0,0,1-1-1V4.5A4.505,4.505,0,0,1,4.5,0h51A4.505,4.505,0,0,1,60,4.5V13A1,1,0,0,1,59,14ZM2,12H58V4.5A2.5,2.5,0,0,0,55.5,2H4.5A2.5,2.5,0,0,0,2,4.5Z" fill="#9a9a9a"/>
  <path id="Path_972" data-name="Path 972" d="M41,42H12a1,1,0,0,1-1-1V35a1,1,0,0,1,1-1H41a1,1,0,0,1,1,1v6A1,1,0,0,1,41,42ZM13,40H40V36H13Z" fill="#9a9a9a"/>
  <path id="Path_973" data-name="Path 973" d="M48,42H41a1,1,0,0,1-1-1V35a1,1,0,0,1,1-1h7a1,1,0,0,1,1,1v6A1,1,0,0,1,48,42Zm-6-2h5V36H42Z" fill="#9a9a9a"/>
  <path id="Path_974" data-name="Path 974" d="M30,31a6,6,0,1,1,6-6A6.006,6.006,0,0,1,30,31Zm0-10a4,4,0,1,0,4,4A4,4,0,0,0,30,21Z" fill="#9a9a9a"/>
  <path id="Path_975" data-name="Path 975" d="M34,48H20a1,1,0,0,1,0-2H34a1,1,0,0,1,0,2Z" fill="#9a9a9a"/>
  <path id="Path_976" data-name="Path 976" d="M41,48H38a1,1,0,0,1,0-2h3a1,1,0,0,1,0,2Z" fill="#9a9a9a"/>
  <path id="Path_977" data-name="Path 977" d="M41,53H27a1,1,0,0,1,0-2H41a1,1,0,0,1,0,2Z" fill="#9a9a9a"/>
  <path id="Path_978" data-name="Path 978" d="M23,53H20a1,1,0,0,1,0-2h3a1,1,0,0,1,0,2Z" fill="#9a9a9a"/>
</svg>
