<svg id="testimonial" xmlns="http://www.w3.org/2000/svg" width="60" height="60" viewBox="0 0 60 60">
  <path id="Path_945" data-name="Path 945" d="M55.5,60H4.5A4.505,4.505,0,0,1,0,55.5V4.5A4.505,4.505,0,0,1,4.5,0h51A4.505,4.505,0,0,1,60,4.5v51A4.505,4.505,0,0,1,55.5,60ZM4.5,2A2.5,2.5,0,0,0,2,4.5v51A2.5,2.5,0,0,0,4.5,58h51A2.5,2.5,0,0,0,58,55.5V4.5A2.5,2.5,0,0,0,55.5,2Z" fill="#9a9a9a"/>
  <path id="Path_946" data-name="Path 946" d="M9,10H5A1,1,0,0,1,4,9V5A1,1,0,0,1,5,4H9a1,1,0,0,1,1,1V9A1,1,0,0,1,9,10ZM6,8H8V6H6Z" fill="#9a9a9a"/>
  <path id="Path_947" data-name="Path 947" d="M17,10H13a1,1,0,0,1-1-1V5a1,1,0,0,1,1-1h4a1,1,0,0,1,1,1V9A1,1,0,0,1,17,10ZM14,8h2V6H14Z" fill="#9a9a9a"/>
  <path id="Path_948" data-name="Path 948" d="M25,10H21a1,1,0,0,1-1-1V5a1,1,0,0,1,1-1h4a1,1,0,0,1,1,1V9A1,1,0,0,1,25,10ZM22,8h2V6H22Z" fill="#9a9a9a"/>
  <path id="Path_949" data-name="Path 949" d="M59,14H1a1,1,0,0,1-1-1V4.5A4.505,4.505,0,0,1,4.5,0h51A4.505,4.505,0,0,1,60,4.5V13A1,1,0,0,1,59,14ZM2,12H58V4.5A2.5,2.5,0,0,0,55.5,2H4.5A2.5,2.5,0,0,0,2,4.5Z" fill="#9a9a9a"/>
  <path id="Path_950" data-name="Path 950" d="M16,33a8,8,0,1,1,8-8A8.009,8.009,0,0,1,16,33Zm0-14a6,6,0,1,0,6,6A6.007,6.007,0,0,0,16,19Z" fill="#9a9a9a"/>
  <path id="Path_951" data-name="Path 951" d="M16,33a7.946,7.946,0,0,1-4.554-1.427,1,1,0,0,1-.428-.885,5.01,5.01,0,0,1,1.689-3.426A3.947,3.947,0,0,1,12,25a4,4,0,1,1,7.293,2.263,5.011,5.011,0,0,1,1.69,3.426,1,1,0,0,1-.428.885A7.956,7.956,0,0,1,16,33Zm-2.9-2.747a6.067,6.067,0,0,0,5.789,0,3.02,3.02,0,0,0-1.259-1.745A1.369,1.369,0,0,1,17.42,26.4a1.994,1.994,0,0,0-1.035-3.364A2,2,0,0,0,14,25a1.969,1.969,0,0,0,.581,1.4,1.371,1.371,0,0,1-.215,2.109A3.02,3.02,0,0,0,13.1,30.253Z" fill="#9a9a9a"/>
  <path id="Path_952" data-name="Path 952" d="M59,37H1a1,1,0,0,1-1-1V13a1,1,0,0,1,1-1H59a1,1,0,0,1,1,1V36A1,1,0,0,1,59,37ZM2,35H58V14H2Z" fill="#9a9a9a"/>
  <path id="Path_953" data-name="Path 953" d="M43,21H29a1,1,0,0,1,0-2H43a1,1,0,0,1,0,2Z" fill="#9a9a9a"/>
  <path id="Path_954" data-name="Path 954" d="M50,21H47a1,1,0,0,1,0-2h3a1,1,0,0,1,0,2Z" fill="#9a9a9a"/>
  <path id="Path_955" data-name="Path 955" d="M43,31H29a1,1,0,0,1,0-2H43a1,1,0,0,1,0,2Z" fill="#9a9a9a"/>
  <path id="Path_956" data-name="Path 956" d="M50,31H47a1,1,0,0,1,0-2h3a1,1,0,0,1,0,2Z" fill="#9a9a9a"/>
  <path id="Path_957" data-name="Path 957" d="M50,26H36a1,1,0,0,1,0-2H50a1,1,0,0,1,0,2Z" fill="#9a9a9a"/>
  <path id="Path_958" data-name="Path 958" d="M32,26H29a1,1,0,0,1,0-2h3a1,1,0,0,1,0,2Z" fill="#9a9a9a"/>
  <path id="Path_959" data-name="Path 959" d="M43,56a8,8,0,1,1,8-8A8.009,8.009,0,0,1,43,56Zm0-14a6,6,0,1,0,6,6A6.007,6.007,0,0,0,43,42Z" fill="#9a9a9a"/>
  <path id="Path_960" data-name="Path 960" d="M43,56a7.944,7.944,0,0,1-4.554-1.427,1,1,0,0,1-.428-.885,5.009,5.009,0,0,1,1.69-3.427A4,4,0,1,1,47,48a3.947,3.947,0,0,1-.707,2.263,5.006,5.006,0,0,1,1.689,3.426,1,1,0,0,1-.428.885A7.952,7.952,0,0,1,43,56Zm-2.9-2.747a6.067,6.067,0,0,0,5.789,0,3.02,3.02,0,0,0-1.259-1.745,1.37,1.37,0,0,1-.217-2.108A1.974,1.974,0,0,0,45,48a2,2,0,1,0-3.42,1.4,1.37,1.37,0,0,1-.216,2.109,3.02,3.02,0,0,0-1.259,1.745Z" fill="#9a9a9a"/>
  <path id="Path_961" data-name="Path 961" d="M23,44H9a1,1,0,0,1,0-2H23a1,1,0,0,1,0,2Z" fill="#9a9a9a"/>
  <path id="Path_962" data-name="Path 962" d="M30,44H27a1,1,0,0,1,0-2h3a1,1,0,0,1,0,2Z" fill="#9a9a9a"/>
  <path id="Path_963" data-name="Path 963" d="M23,54H9a1,1,0,0,1,0-2H23a1,1,0,0,1,0,2Z" fill="#9a9a9a"/>
  <path id="Path_964" data-name="Path 964" d="M30,54H27a1,1,0,0,1,0-2h3a1,1,0,0,1,0,2Z" fill="#9a9a9a"/>
  <path id="Path_965" data-name="Path 965" d="M30,49H16a1,1,0,0,1,0-2H30a1,1,0,0,1,0,2Z" fill="#9a9a9a"/>
  <path id="Path_966" data-name="Path 966" d="M12,49H9a1,1,0,0,1,0-2h3a1,1,0,0,1,0,2Z" fill="#9a9a9a"/>
</svg>
